<?xml version="1.0" standalone="no"?>
<!DOCTYPE svg PUBLIC "-//W3C//DTD SVG 20010904//EN"
 "http://www.w3.org/TR/2001/REC-SVG-20010904/DTD/svg10.dtd">
<svg version="1.0" xmlns="http://www.w3.org/2000/svg"
 width="256.000000pt" height="256.000000pt" viewBox="0 0 256.000000 256.000000"
 preserveAspectRatio="xMidYMid meet">
<metadata>
Created by potrace 1.11, written by Peter Selinger 2001-2013
</metadata>
<g transform="translate(0.000000,256.000000) scale(0.100000,-0.100000)"
fill="#000000" stroke="none">
<path d="M833 2275 c1 -31 -2 -55 -7 -55 -6 0 -5 -5 1 -11 8 -8 8 -20 3 -34
-5 -13 -7 -25 -4 -28 11 -10 12 -47 1 -47 -8 0 -8 -3 0 -11 8 -8 8 -20 3 -34
-5 -13 -7 -25 -4 -28 10 -10 12 -47 3 -47 -6 0 -7 -5 -3 -11 3 -6 6 -45 5 -88
-1 -42 -2 -83 -2 -91 1 -12 0 -110 0 -155 0 -5 2 -25 4 -42 2 -18 0 -33 -4
-33 -3 0 -3 -18 1 -40 4 -22 4 -40 -1 -40 -4 0 -4 -13 1 -30 6 -21 5 -30 -3
-30 -8 0 -8 -3 0 -11 8 -8 8 -20 3 -34 -5 -13 -7 -25 -4 -28 11 -10 12 -47 1
-47 -8 0 -8 -3 0 -11 8 -8 8 -20 3 -34 -5 -13 -7 -25 -4 -28 10 -10 12 -47 3
-47 -6 0 -7 -5 -3 -11 9 -15 11 -89 3 -89 -4 0 -3 -18 1 -40 4 -23 3 -40 -2
-40 -5 0 -7 -4 -4 -8 4 -8 6 -42 6 -157 0 -169 -1 -165 29 -165 15 0 33 -6 41
-13 12 -10 12 -9 1 6 -7 9 -10 18 -5 18 5 1 20 3 34 6 14 2 33 4 43 4 9 0 17
4 17 9 0 4 8 7 18 5 9 -1 22 0 27 4 17 9 35 10 30 0 -4 -5 1 -6 9 -3 9 3 16
10 16 15 0 5 5 9 11 9 5 0 7 -6 3 -12 -4 -7 2 -5 14 5 11 11 25 16 31 13 6 -4
23 1 38 11 21 14 25 14 18 3 -7 -13 -6 -13 7 -2 11 9 18 10 23 2 4 -7 15 -3
31 9 14 11 31 18 39 15 7 -3 23 -1 34 6 16 8 27 8 44 -1 21 -12 21 -11 7 7 -8
10 -11 16 -6 12 5 -4 17 -3 27 2 12 7 20 6 25 -1 4 -7 9 -7 13 -1 3 5 17 13
30 17 18 5 22 4 16 -6 -5 -9 -1 -8 11 2 10 9 25 14 32 12 6 -3 12 0 12 6 0 5
9 9 19 8 11 -1 18 -7 16 -17 -2 -8 -4 -19 -5 -25 -1 -5 -1 -12 0 -15 2 -3 4
-33 5 -67 2 -42 -1 -63 -9 -63 -7 0 -8 -3 -1 -8 14 -9 16 -104 2 -95 -6 4 -7
1 -1 -8 13 -20 13 -123 0 -131 -7 -5 -7 -8 0 -8 5 0 10 -18 11 -40 1 -27 -3
-38 -11 -33 -6 3 -6 1 2 -8 6 -7 12 -26 12 -42 0 -23 3 -27 19 -22 11 3 23 0
27 -6 4 -7 3 -9 -4 -5 -6 3 -13 2 -16 -3 -4 -5 1 -8 10 -7 8 1 19 8 24 15 5 9
10 10 14 2 4 -6 13 -11 19 -11 7 0 6 4 -3 11 -12 8 -9 10 13 6 19 -3 25 -1 19
7 -10 14 -9 67 3 85 5 9 4 12 -2 8 -12 -7 -10 54 2 73 5 8 4 11 -2 7 -6 -4
-10 6 -9 23 1 17 6 30 11 30 6 0 4 4 -3 9 -11 6 -10 12 5 26 13 14 14 17 3 13
-13 -5 -15 3 -15 42 0 38 3 47 15 43 12 -4 13 -3 1 5 -16 12 -22 104 -6 94 5
-3 4 1 -3 10 -11 13 -10 19 5 34 16 16 16 17 1 12 -13 -5 -16 -2 -14 16 1 12
6 28 11 35 5 9 4 12 -2 8 -12 -7 -10 54 2 73 5 7 4 11 -1 8 -5 -4 -9 20 -9 53
0 33 4 59 10 59 7 0 7 3 0 8 -6 4 -10 69 -10 157 0 88 4 153 10 157 7 5 7 8 0
8 -12 0 -12 250 0 270 5 8 4 11 -2 7 -12 -7 -10 54 2 73 5 8 4 11 -2 7 -6 -4
-10 6 -9 23 1 17 6 30 11 30 6 0 4 4 -3 9 -11 6 -10 12 5 26 15 16 15 18 2 13
-13 -5 -16 -1 -14 21 1 15 4 32 8 37 3 5 -1 17 -8 27 -12 17 -17 16 -101 -4
-49 -11 -100 -23 -114 -25 -14 -3 -52 -12 -85 -21 -78 -20 -114 -27 -147 -27
-14 -1 -24 -4 -22 -7 3 -6 -10 -10 -83 -25 -6 -1 -53 -12 -104 -24 -50 -11
-94 -19 -96 -16 -10 10 -9 181 2 195 6 9 6 13 0 9 -7 -4 -10 55 -9 170 1 98
-1 183 -4 190 -2 7 -24 12 -58 12 l-55 0 4 -55z m753 -628 c2 -33 -1 -45 -9
-40 -9 5 -9 3 -1 -8 8 -10 11 -98 10 -284 l-1 -270 -140 -36 c-77 -21 -143
-35 -147 -33 -4 2 -9 0 -13 -6 -4 -6 -10 -8 -15 -5 -5 3 -11 1 -14 -4 -3 -5
-19 -8 -35 -7 -17 1 -28 -1 -26 -5 6 -8 -54 -21 -66 -13 -5 3 -9 1 -9 -4 0 -5
-19 -13 -42 -17 -24 -4 -50 -10 -58 -12 -8 -3 -28 -7 -45 -10 l-30 -5 1 323 0
323 30 12 c30 13 48 9 39 -7 -10 -15 2 -10 16 8 12 15 12 16 -1 8 -12 -6 -13
-6 -2 6 11 12 14 12 22 -1 8 -13 10 -12 10 3 0 10 7 17 18 16 10 0 12 -3 5 -6
-7 -2 -13 -10 -13 -16 0 -6 10 -1 23 10 12 11 29 20 37 20 24 0 44 7 52 18 4
6 8 1 8 -9 0 -18 1 -18 13 -4 16 21 81 42 85 28 2 -5 8 -10 13 -10 4 0 5 7 2
17 -4 10 -2 14 4 10 6 -4 23 -3 38 3 14 5 24 6 21 2 -3 -5 2 -9 10 -9 8 0 13
6 10 14 -3 7 1 13 10 13 9 0 12 -5 8 -12 -4 -7 2 -5 13 5 21 18 22 18 33 0 10
-17 11 -17 5 2 -4 17 0 20 18 20 13 -1 28 -5 35 -9 8 -5 10 -2 5 10 -5 13 -2
15 17 9 14 -4 20 -3 17 3 -4 5 3 9 15 8 19 -1 22 -7 24 -49z"/>
<path d="M1265 1610 c-4 -6 -11 -7 -17 -4 -7 4 -8 2 -4 -5 6 -9 11 -9 22 0 14
11 18 19 10 19 -3 0 -8 -5 -11 -10z"/>
<path d="M1415 791 c-3 -5 -2 -12 3 -15 5 -3 9 1 9 9 0 17 -3 19 -12 6z"/>
<path d="M1280 760 c-9 -6 -10 -10 -3 -10 6 0 15 5 18 10 8 12 4 12 -15 0z"/>
<path d="M1133 715 c0 -8 4 -12 9 -9 5 3 6 10 3 15 -9 13 -12 11 -12 -6z"/>
<path d="M956 673 c-6 -14 -5 -15 5 -6 7 7 10 15 7 18 -3 3 -9 -2 -12 -12z"/>
</g>
</svg>
